PathFileType	4	(X/Y/Z)	./resultDataOpenSim/trcMotMarkerGrf/sub06/qtm-03-02.trc
DataRate	CameraRate	NumFrames	NumMarkers	Units	OrigDataRate	OrigDataStartFrame	OrigNumFrames
250.000000	250.000000	10	24	m	250.000000	126	502
Frame#	Time	L.Toe.Tip			R.Toe.Tip			L.Ankle.Lat			R.Ankle.Lat			L.Ankle.Med			R.Ankle.Med			L.Heel			R.Heel			L.Knee.Lat			R.Knee.Lat			L.Knee.Med			R.Knee.Med			L.Thigh.Upper			R.Thigh.Upper			L.ASIS			R.ASIS			V.Sacral			L.Acromium			R.Acromium			C7			L.Elbow			R.Elbow			L.Wrist.Lat			R.Wrist.Lat
		X1	Y1	Z1	X2	Y2	Z2	X3	Y3	Z3	X4	Y4	Z4	X5	Y5	Z5	X6	Y6	Z6	X7	Y7	Z7	X8	Y8	Z8	X9	Y9	Z9	X10	Y10	Z10	X11	Y11	Z11	X12	Y12	Z12	X13	Y13	Z13	X14	Y14	Z14	X15	Y15	Z15	X16	Y16	Z16	X17	Y17	Z17	X18	Y18	Z18	X19	Y19	Z19	X20	Y20	Z20	X21	Y21	Z21	X22	Y22	Z22	X23	Y23	Z23	X24	Y24	Z24

126	0.5	-0.12724463	0.083665148	-0.073757852	-0.7349979	0.035479252	0.071276253	-0.25575343	0.089338474	-0.096976297	-0.867997	0.065720845	0.083780383	-0.25743945	0.10625267	-0.01341076	-0.84125555	0.082947005	-0.0018293228	-0.31597478	0.040941894	-0.046935249	-0.92200759	0.045126913	0.018134587	-0.33936003	0.45205611	-0.10188968	-0.70552724	0.41884016	0.12570581	-0.35830192	0.44022656	0.019595625	-0.72853904	0.42212945	-0.0063477883	-0.53391564	0.79345149	-0.15301754	-0.61625792	0.77303411	0.19437373	-0.47730232	0.83508396	-0.096600943	-0.49609864	0.82022545	0.1493875	-0.67392366	0.90058385	0.019389962	-0.5741082	1.3099172	-0.16419017	-0.54607013	1.3058116	0.19563182	-0.63234391	1.3461812	0.020134215	-0.6859175	1.0144172	-0.20553921	-0.5702515	0.99371177	0.29797719	-0.58877203	0.7949138	-0.26262716	-0.340603	0.89253383	0.2714105
127	0.504	-0.11465029	0.085022166	-0.072233472	-0.73488825	0.035430247	0.07127737	-0.24314446	0.088966502	-0.096159178	-0.8676233	0.066099248	0.083524108	-0.24560961	0.10575622	-0.012621205	-0.84064465	0.082981207	-0.0021286541	-0.30267509	0.039529384	-0.047163026	-0.92174229	0.045725726	0.017741897	-0.3319986	0.44985101	-0.10102568	-0.70191752	0.41761742	0.12554147	-0.35114998	0.43794351	0.020533164	-0.72377439	0.42081639	-0.0066415309	-0.52642692	0.79046661	-0.15300045	-0.61056004	0.77153792	0.1949588	-0.46987615	0.83224345	-0.096427453	-0.48980163	0.81792641	0.14971307	-0.66611977	0.89788069	0.017731564	-0.56773719	1.3074435	-0.16429568	-0.53953331	1.3032907	0.1957729	-0.62601937	1.3438817	0.020140725	-0.68051404	1.0123784	-0.20534714	-0.56265668	0.99106108	0.29831229	-0.58513914	0.79251692	-0.26327822	-0.33249509	0.89169487	0.27095022
128	0.508	-0.10257765	0.086341547	-0.070778746	-0.73478448	0.035396322	0.07128211	-0.23100995	0.088473909	-0.095274193	-0.86725645	0.066536013	0.083242818	-0.2342526	0.10512297	-0.011759981	-0.84000828	0.083071044	-0.0024568723	-0.28998493	0.038042884	-0.047312323	-0.92145694	0.046393699	0.017328935	-0.32449933	0.44764163	-0.10018721	-0.69825472	0.4163473	0.12535648	-0.34404289	0.43560638	0.021451102	-0.71895778	0.41949834	-0.0068862825	-0.51892581	0.78746475	-0.15297023	-0.6043563	0.7695647	0.19496715	-0.46234458	0.8293766	-0.096258954	-0.48343733	0.81562862	0.15008495	-0.65838944	0.89497872	0.015982252	-0.56133846	1.3049567	-0.1644074	-0.53303113	1.3007585	0.19590227	-0.61966877	1.3415693	0.020108213	-0.67501359	1.0102983	-0.20513665	-0.5550651	0.9883909	0.29865222	-0.58146467	0.79011665	-0.26390991	-0.32446395	0.8907699	0.27049804
129	0.512	-0.091010516	0.087558482	-0.069420609	-0.73468511	0.035387063	0.071296866	-0.21933266	0.087839303	-0.094335852	-0.86689524	0.067033936	0.082949223	-0.22328186	0.10437003	-0.010782386	-0.83934653	0.083234237	-0.0028195961	-0.277878	0.036501673	-0.047140428	-0.92115343	0.047139303	0.016907745	-0.31690118	0.44542304	-0.099381951	-0.69452168	0.41503275	0.12515548	-0.33696058	0.43322952	0.022354893	-0.71409283	0.41818769	-0.0070449564	-0.51143504	0.78446146	-0.15292393	-0.59780669	0.76717748	0.19446522	-0.45472195	0.82649412	-0.096081731	-0.47700766	0.81333305	0.15049746	-0.65087381	0.8922823	0.014535792	-0.55492074	1.3024626	-0.16453261	-0.52655722	1.298228	0.19600769	-0.61326569	1.339203	0.020042055	-0.66941091	1.0081706	-0.20489646	-0.5474877	0.98571721	0.29898739	-0.57757066	0.78774814	-0.26447635	-0.31646847	0.8897604	0.2700488
130	0.516	-0.079920452	0.088567473	-0.068159124	-0.73458662	0.035405903	0.071324967	-0.2080992	0.08704831	-0.093365426	-0.86653024	0.067589278	0.082653627	-0.2126411	0.10350936	-0.0096701196	-0.83864832	0.083468136	-0.0031997583	-0.26625876	0.034877545	-0.046660012	-0.92083212	0.047967515	0.016483892	-0.30926061	0.44318956	-0.098617511	-0.69070164	0.41367657	0.12494331	-0.32987847	0.430825	0.023248135	-0.70912109	0.41686497	-0.0071612775	-0.50396312	0.78147654	-0.15285607	-0.59105896	0.76452453	0.19365927	-0.44705954	0.82359306	-0.095871786	-0.47051431	0.81104056	0.15094581	-0.64361487	0.88991283	0.01345365	-0.54849115	1.2999705	-0.16467037	-0.52010079	1.2957056	0.19608495	-0.6068205	1.33678	0.019945605	-0.66370901	1.0060132	-0.2046275	-0.53993104	0.98304353	0.29929283	-0.57325022	0.78544775	-0.26491115	-0.30851547	0.88867349	0.26961563
131	0.52	-0.069272835	0.089247729	-0.06696093	-0.73449027	0.035440236	0.07135993	-0.19729845	0.086080335	-0.092370444	-0.8661463	0.068203876	0.082366493	-0.20233279	0.10252362	-0.0084741599	-0.83789691	0.08375901	-0.0035587042	-0.25507707	0.03315454	-0.045980424	-0.92049063	0.048892026	0.016059251	-0.30161391	0.44094383	-0.09789408	-0.68677747	0.41228143	0.12472481	-0.32278754	0.42839659	0.024125002	-0.70394991	0.41548339	-0.0073569925	-0.49647183	0.77853853	-0.15275635	-0.58420232	0.76173804	0.19274423	-0.4393977	0.82067004	-0.095612409	-0.46395875	0.80875195	0.15142535	-0.63656205	0.88775968	0.012522717	-0.54205828	1.2974955	-0.1648191	-0.51365195	1.2931918	0.19613181	-0.60035492	1.3343285	0.019819514	-0.65791198	1.0038638	-0.20434529	-0.53239275	0.98037201	0.29954598	-0.56856863	0.78318931	-0.26522801	-0.30062682	0.88751603	0.2692129
132	0.524	-0.059047433	0.089516958	-0.065794482	-0.73440376	0.035465472	0.071388012	-0.18692081	0.084915133	-0.091344447	-0.86574011	0.0688827	0.082092394	-0.19240042	0.10137521	-0.0072951852	-0.83708544	0.084105019	-0.003868217	-0.24434696	0.031342698	-0.045171239	-0.92012265	0.049930765	0.01563881	-0.29397596	0.43869631	-0.097200901	-0.68273168	0.41085003	0.12450479	-0.31568315	0.42594439	0.024975645	-0.69854753	0.41401364	-0.0077259476	-0.48889715	0.77566746	-0.15262044	-0.5773095	0.75891817	0.19184447	-0.43173994	0.81773002	-0.095302717	-0.45734232	0.80646802	0.1519313	-0.62967742	0.88568581	0.011589282	-0.53563046	1.295057	-0.16498412	-0.5071997	1.2906882	0.19614123	-0.59387107	1.3318717	0.01966447	-0.65202101	1.0017475	-0.2040618	-0.52486769	0.97771356	0.29973821	-0.56387588	0.78088715	-0.2655386	-0.29280708	0.88628572	0.26883147
133	0.528	-0.049241781	0.089341553	-0.06465252	-0.7343335	0.03546762	0.071400684	-0.17695978	0.083546665	-0.090287035	-0.8653117	0.069631079	0.081828614	-0.18287522	0.1000352	-0.006202649	-0.83622325	0.084516935	-0.0041280844	-0.23409829	0.029449697	-0.044260877	-0.91972045	0.051095005	0.01522962	-0.28635143	0.43645279	-0.096527899	-0.67854664	0.40938506	0.124288	-0.30855552	0.42347196	0.025788136	-0.69298035	0.41247054	-0.0082372505	-0.48120057	0.77286884	-0.15245985	-0.57051407	0.75619101	0.19106991	-0.42406781	0.81478083	-0.094949594	-0.45066636	0.80418955	0.15245876	-0.62285723	0.88360456	0.010604285	-0.52920285	1.292665	-0.16517224	-0.50074134	1.2881996	0.19610866	-0.58735595	1.32942	0.019479114	-0.64603509	0.99966067	-0.20377549	-0.51735851	0.97508098	0.29987577	-0.55945681	0.7784801	-0.26594165	-0.28503676	0.884973	0.26844048
134	0.532	-0.039856555	0.088714341	-0.063534454	-0.73428007	0.035453018	0.071398501	-0.16741243	0.081977576	-0.089210373	-0.864846	0.070457342	0.081576858	-0.17375015	0.098485321	-0.0052025051	-0.8353287	0.085001672	-0.0043510289	-0.22434571	0.02746687	-0.043278209	-0.91928017	0.052393387	0.014838847	-0.27873993	0.43420455	-0.095876611	-0.67420467	0.40788923	0.12407923	-0.30139762	0.420991	0.026547794	-0.68734303	0.41089324	-0.0087612614	-0.47337761	0.77014503	-0.15229235	-0.56394903	0.7536756	0.19050223	-0.41635759	0.8118319	-0.094559007	-0.44393222	0.80191736	0.1530028	-0.6159177	0.88145172	0.00951526	-0.52274492	1.2902986	-0.16537815	-0.49427933	1.2857305	0.19603495	-0.58080084	1.3269825	0.019260464	-0.63995124	0.99758523	-0.20348064	-0.50987291	0.9724797	0.29996951	-0.55531236	0.77598049	-0.26644135	-0.27730164	0.88357382	0.26802006
135	0.536	-0.030890194	0.087646603	-0.062429522	-0.73424331	0.035428928	0.071385992	-0.15827829	0.080205667	-0.088130793	-0.86432158	0.071366846	0.081347556	-0.16500593	0.096707047	-0.0042727185	-0.83441972	0.08555801	-0.0045437436	-0.21508864	0.02538261	-0.042263314	-0.91880551	0.053835228	0.014476516	-0.27113607	0.43192959	-0.095253069	-0.66968807	0.40636525	0.12388322	-0.2942117	0.41851991	0.027243908	-0.68168042	0.40931244	-0.009189747	-0.46544411	0.7674962	-0.1521248	-0.55760858	0.75138086	0.19011283	-0.4085919	0.80889906	-0.094136891	-0.43714129	0.79965223	0.15355846	-0.60873252	0.87919778	0.0083828844	-0.51621837	1.2879157	-0.16558622	-0.4878036	1.2832812	0.19592075	-0.57420569	1.3245636	0.019008622	-0.63376484	0.99550592	-0.20317802	-0.50241417	0.96990996	0.30002053	-0.5512527	0.77344563	-0.26697418	-0.26961005	0.88209275	0.26757509
